<?xml version="1.0" encoding="UTF-8"?><?xml-stylesheet type="text/css" href="../style.css"?><svg id="Layer_2" xmlns="http://www.w3.org/2000/svg" viewBox="0 0 340.78 339.28"><g id="Logo"><g id="Glasgow"><g><g><path d="M15.2,137.89l1.95-9.73,9.83,1.97-.58,2.92-4.25-1.66-.48,1.01c1.11,.69,1.96,1.44,2.55,2.24,.6,.8,.97,1.71,1.12,2.7,.15,1.01,.09,2.16-.18,3.48-.35,1.77-1.03,3.23-2.03,4.4-1,1.17-2.33,1.97-3.99,2.39-1.66,.42-3.62,.41-5.88-.04-2.23-.45-4.02-1.26-5.36-2.44-1.34-1.18-2.23-2.61-2.66-4.28-.44-1.67-.46-3.47-.07-5.42,.31-1.55,.79-2.92,1.43-4.11,.64-1.18,1.46-2.07,2.44-2.68,.98-.6,2.11-.8,3.38-.6,.04,0,.12,.01,.22,.03,.05,.01,.22,.06,.5,.14l.29,3.72c-.24-.08-.44-.14-.62-.18-.79-.16-1.49-.05-2.11,.33-.61,.38-1.12,.95-1.53,1.7-.4,.76-.7,1.63-.9,2.62-.38,1.87-.16,3.5,.66,4.89,.82,1.39,2.5,2.34,5.06,2.85,1.8,.36,3.28,.38,4.45,.05,1.17-.33,2.07-.93,2.7-1.82,.63-.89,1.09-2.03,1.37-3.44,.17-.83,.16-1.7-.04-2.6-.19-.9-.57-1.72-1.12-2.45-.55-.73-1.26-1.25-2.13-1.56l-1.23,6.11-2.82-.57Z" style="fill:#352083;"/><path d="M14.41,105.98l15.73,6.63,4.02-9.53,2.65,1.12-5.34,12.67-18.38-7.74,1.32-3.14Z" style="fill:#352083;"/><path d="M53.98,76.58l-2.19,3.2-4.23-1.12-5.81,8.49,2.57,3.54-2.16,3.16-12.18-17.52,3.28-4.78,20.72,5.03Zm-20.8-1.17l6.77,9.28,4.66-6.8-11.11-2.93-.31,.46Z" style="fill:#352083;"/><path d="M72.14,56.18c-.4,1.74-1.71,3.66-3.92,5.77-1.28,1.22-2.54,2.13-3.78,2.72-1.23,.59-2.37,.84-3.42,.75-1.05-.09-1.93-.51-2.66-1.27-.25-.26-.52-.61-.8-1.03l2.1-2.81c.15,.42,.38,.79,.69,1.11,.64,.67,1.45,.88,2.42,.62,.97-.26,2.19-1.09,3.66-2.49,1.31-1.25,2.13-2.34,2.45-3.27,.32-.93,.15-1.75-.53-2.47-.48-.51-.99-.77-1.51-.8-.53-.03-1.23,.21-2.14,.72-.9,.51-2.18,1.39-3.87,2.65-1.4,1.06-2.59,1.77-3.58,2.11-.99,.34-1.87,.38-2.64,.12-.76-.26-1.54-.81-2.33-1.63-.86-.9-1.38-1.89-1.55-2.98-.18-1.09-.01-2.21,.5-3.38,.51-1.17,1.37-2.33,2.56-3.46,1.98-1.89,3.79-3.01,5.43-3.34,1.64-.34,3.11,.18,4.42,1.55,.17,.18,.33,.38,.5,.63l-1.71,3.1c-.21-.43-.45-.78-.71-1.05-.75-.79-1.64-1.03-2.66-.73-1.02,.3-2.11,1.01-3.26,2.11-1.08,1.03-1.72,2-1.92,2.92-.2,.92,.04,1.74,.73,2.45,.44,.47,.91,.72,1.4,.75,.49,.03,1.21-.23,2.17-.77,.96-.54,2.34-1.5,4.15-2.87,1.64-1.25,3.15-1.95,4.53-2.1,1.38-.15,2.64,.38,3.8,1.58,1.39,1.46,1.88,3.06,1.47,4.8Z" style="fill:#352083;"/><path d="M87.38,34.15l8.45-5.19,5.25,8.54-2.54,1.56-1.67-4.25-1.07,.34c.25,1.28,.28,2.42,.1,3.4-.19,.98-.59,1.86-1.22,2.66-.64,.79-1.53,1.54-2.67,2.24-1.54,.94-3.07,1.45-4.61,1.51-1.53,.06-3.03-.37-4.47-1.3-1.45-.93-2.77-2.37-3.98-4.34-1.19-1.94-1.81-3.81-1.86-5.59-.05-1.79,.39-3.41,1.32-4.86,.93-1.45,2.24-2.7,3.93-3.74,1.35-.83,2.68-1.41,3.98-1.75,1.31-.33,2.51-.34,3.63-.03,1.11,.31,2.03,1,2.75,2.07,.03,.03,.07,.09,.13,.19,.02,.05,.1,.2,.24,.46l-2.53,2.74c-.1-.23-.2-.42-.29-.57-.42-.69-.98-1.13-1.68-1.32-.7-.19-1.46-.18-2.29,.04s-1.67,.59-2.53,1.12c-1.63,1-2.67,2.27-3.13,3.81-.46,1.54-.01,3.42,1.35,5.65,.96,1.56,1.96,2.66,2.99,3.29,1.04,.64,2.09,.88,3.17,.74,1.08-.14,2.23-.58,3.46-1.34,.72-.45,1.35-1.05,1.88-1.81,.53-.75,.87-1.58,1.03-2.48,.16-.9,.06-1.77-.31-2.62l-5.31,3.26-1.5-2.45Z" style="fill:#352083;"/><path d="M114.31,29.13c-2.12-1.09-3.76-3.34-4.93-6.74-.73-2.13-.91-4.07-.54-5.81s1.14-3.21,2.3-4.39c1.16-1.18,2.54-2.05,4.15-2.6,3.15-1.08,5.78-1.08,7.88,.02,2.1,1.1,3.74,3.36,4.92,6.8,.74,2.15,.95,4.07,.65,5.78-.3,1.71-1.03,3.14-2.19,4.31-1.16,1.17-2.64,2.06-4.45,2.68-3.09,1.06-5.69,1.05-7.81-.04Zm9.84-4.54c.74-.66,1.18-1.57,1.34-2.73,.16-1.15-.05-2.6-.65-4.34-.59-1.7-1.34-2.98-2.26-3.84-.92-.85-1.91-1.36-2.99-1.5-1.07-.14-2.19-.01-3.35,.39-1.23,.42-2.2,.97-2.92,1.64-.73,.67-1.17,1.58-1.33,2.73-.16,1.14,.06,2.59,.66,4.32,.86,2.51,2.05,4.13,3.57,4.83,1.51,.71,3.18,.75,5,.12,1.22-.42,2.2-.97,2.93-1.63Z" style="fill:#352083;"/><path d="M164.05,18.12L166.97,.34l3.55-.34-3.74,20.39-5.7,.54-5.93-15.36-.73,.07-2.98,16.21-5.59,.54-7.69-19.3,3.57-.34,6.36,16.89,.76-.07,3.24-17.81,4.63-.44,6.58,16.87,.74-.07Z" style="fill:#352083;"/></g><polygon points="166.55 339.17 172.47 314.85 174.23 314.98 167.33 339.28 166.55 339.17" style="fill:#352083;"/><polygon points="196.43 .56 187.38 23.91 185.65 23.54 195.67 .35 196.43 .56" style="fill:#352083;"/><polygon points="144.36 337.21 153.41 313.87 155.13 314.23 145.11 337.42 144.36 337.21" style="fill:#352083;"/><polygon points="218.17 5.4 206.15 27.36 204.49 26.78 217.45 5.1 218.17 5.4" style="fill:#352083;"/><polygon points="122.61 332.38 134.63 310.41 136.29 311 123.33 332.68 122.61 332.38" style="fill:#352083;"/><polygon points="239.11 13.04 224.32 33.24 222.75 32.45 238.43 12.64 239.11 13.04" style="fill:#352083;"/><polygon points="101.68 324.74 116.46 304.53 118.03 305.33 102.36 325.14 101.68 324.74" style="fill:#352083;"/><polygon points="258.86 23.34 241.57 41.44 240.11 40.45 258.24 22.86 258.86 23.34" style="fill:#352083;"/><polygon points="81.92 314.44 99.22 296.33 100.67 297.33 82.54 314.92 81.92 314.44" style="fill:#352083;"/><polygon points="277.1 36.13 257.59 51.82 256.28 50.65 276.55 35.57 277.1 36.13" style="fill:#352083;"/><polygon points="63.68 301.64 83.19 285.95 84.5 287.13 64.23 302.2 63.68 301.64" style="fill:#352083;"/><polygon points="293.52 51.19 272.13 64.21 270.98 62.87 293.04 50.57 293.52 51.19" style="fill:#352083;"/><polygon points="47.27 286.58 68.66 273.57 69.81 274.91 47.74 287.21 47.27 286.58" style="fill:#352083;"/><polygon points="307.83 68.27 284.92 78.38 283.95 76.9 307.44 67.59 307.83 68.27" style="fill:#352083;"/><polygon points="32.96 269.5 55.86 259.39 56.83 260.87 33.35 270.18 32.96 269.5" style="fill:#352083;"/><polygon points="319.78 87.07 295.75 94.1 294.99 92.51 319.49 86.34 319.78 87.07" style="fill:#352083;"/><polygon points="21 250.7 45.03 243.67 45.79 245.26 21.3 251.43 21 250.7" style="fill:#352083;"/><polygon points="329.18 107.27 304.44 111.11 303.89 109.43 328.98 106.51 329.18 107.27" style="fill:#352083;"/><polygon points="11.6 230.5 36.34 226.67 36.89 228.34 11.8 231.26 11.6 230.5" style="fill:#352083;"/><polygon points="335.87 128.53 310.84 129.1 310.51 127.37 335.77 127.75 335.87 128.53" style="fill:#352083;"/><polygon points="4.91 209.25 29.95 208.68 30.27 210.41 5.01 210.03 4.91 209.25" style="fill:#352083;"/><polygon points="339.72 150.47 314.83 147.77 314.73 146.01 339.72 149.68 339.72 150.47" style="fill:#352083;"/><polygon points="1.06 187.31 25.95 190 26.05 191.77 1.06 188.09 1.06 187.31" style="fill:#352083;"/><polygon points="340.68 172.73 316.35 166.8 316.48 165.05 340.78 171.95 340.68 172.73" style="fill:#352083;"/><polygon points=".11 165.05 24.43 170.97 24.3 172.73 0 165.82 .11 165.05" style="fill:#352083;"/><polygon points="338.72 194.92 315.37 185.87 315.73 184.15 338.92 194.16 338.72 194.92" style="fill:#352083;"/><polygon points="333.88 216.67 311.91 204.65 312.5 202.99 334.18 215.95 333.88 216.67" style="fill:#352083;"/><polygon points="326.24 237.6 306.04 222.82 306.83 221.24 326.64 236.92 326.24 237.6" style="fill:#352083;"/><polygon points="315.94 257.36 297.84 240.06 298.83 238.61 316.42 256.74 315.94 257.36" style="fill:#352083;"/><polygon points="303.15 275.6 287.46 256.09 288.63 254.77 303.71 275.05 303.15 275.6" style="fill:#352083;"/><polygon points="288.08 292.01 275.07 270.62 276.41 269.47 288.71 291.54 288.08 292.01" style="fill:#352083;"/><polygon points="271.01 306.32 260.9 283.41 262.37 282.45 271.69 305.93 271.01 306.32" style="fill:#352083;"/><polygon points="252.21 318.28 245.17 294.25 246.76 293.49 252.93 317.98 252.21 318.28" style="fill:#352083;"/><polygon points="232.01 327.68 228.17 302.94 229.85 302.39 232.77 327.48 232.01 327.68" style="fill:#352083;"/><polygon points="210.75 334.36 210.18 309.33 211.91 309.01 211.53 334.27 210.75 334.36" style="fill:#352083;"/><polygon points="188.81 338.22 191.51 313.32 193.27 313.23 189.59 338.22 188.81 338.22" style="fill:#352083;"/></g></g><g id="Juggling"><g><g><path d="M116.36,66.41c1.44,2.36,1.96,4.46,1.57,6.3-.39,1.84-1.77,3.48-4.14,4.92-1.56,.95-3,1.5-4.32,1.64-1.32,.15-2.46-.04-3.44-.55-.97-.51-1.77-1.27-2.38-2.28-.25-.42-.43-.8-.54-1.15l2.51-2.78c.08,.68,.28,1.28,.6,1.81,.43,.7,.96,1.17,1.6,1.43,.64,.26,1.34,.32,2.08,.18,.75-.14,1.5-.44,2.26-.9,.86-.52,1.5-1.1,1.9-1.73,.41-.63,.55-1.39,.44-2.29-.11-.9-.55-1.98-1.32-3.24l-4.51-7.4-6.34,3.86-1.86-2.23,9.61-5.85,6.25,10.27Z" style="fill:#352083;"/><path d="M135,65.14c-1.89-.99-3.18-2.78-3.88-5.37l-3.15-11.6,3.29-.89,3.09,11.39c.38,1.39,.9,2.41,1.58,3.08,.68,.67,1.47,1.04,2.39,1.13,.91,.09,1.99-.04,3.22-.37,1.22-.33,2.2-.77,2.94-1.3s1.24-1.26,1.49-2.18c.25-.92,.18-2.07-.19-3.45l-3.09-11.4,3.28-.89,3.15,11.6c.7,2.58,.49,4.78-.64,6.59-1.12,1.81-3.18,3.12-6.15,3.93-2.99,.81-5.44,.72-7.32-.27Z" style="fill:#352083;"/><path d="M174.36,51.22l9.92,.35-.35,10.02-2.98-.1,.96-4.46-1.08-.3c-.5,1.21-1.1,2.17-1.8,2.88-.7,.71-1.52,1.23-2.49,1.54-.96,.31-2.12,.44-3.47,.39-1.8-.06-3.36-.49-4.67-1.29-1.31-.8-2.32-1.98-3.01-3.55-.69-1.57-.99-3.51-.91-5.81,.08-2.28,.59-4.17,1.54-5.69s2.21-2.62,3.79-3.32c1.58-.7,3.36-1.01,5.34-.95,1.58,.06,3.01,.31,4.29,.75,1.27,.45,2.28,1.1,3.04,1.98,.75,.87,1.14,1.95,1.15,3.24,0,.04,0,.12,0,.23,0,.05-.02,.22-.06,.52l-3.62,.89c.05-.25,.07-.46,.08-.64,.03-.81-.19-1.48-.67-2.03-.47-.54-1.11-.95-1.92-1.23-.81-.28-1.72-.43-2.73-.47-1.9-.07-3.48,.42-4.71,1.45-1.24,1.03-1.9,2.85-1.99,5.45-.06,1.83,.16,3.3,.67,4.4,.51,1.1,1.25,1.89,2.23,2.37,.98,.48,2.18,.75,3.62,.8,.85,.03,1.71-.13,2.56-.47,.86-.34,1.6-.83,2.24-1.5,.63-.66,1.03-1.44,1.19-2.35l-6.23-.22,.1-2.88Z" style="fill:#352083;"/><path d="M209.47,57.85l9.35,3.32-3.35,9.45-2.81-.99,2.26-3.97-.94-.61c-.84,1-1.7,1.73-2.58,2.21-.88,.47-1.82,.71-2.84,.71-1.01,0-2.15-.22-3.42-.67-1.7-.6-3.05-1.48-4.07-2.63-1.02-1.16-1.62-2.59-1.8-4.29-.19-1.71,.11-3.65,.88-5.82,.76-2.15,1.82-3.8,3.18-4.96,1.36-1.16,2.9-1.83,4.61-2.03,1.71-.19,3.51,.04,5.38,.71,1.5,.53,2.78,1.2,3.86,2s1.85,1.74,2.3,2.8c.46,1.06,.5,2.21,.12,3.44,0,.04-.03,.12-.06,.22-.02,.05-.09,.21-.21,.48l-3.72-.25c.12-.22,.2-.42,.26-.58,.27-.76,.26-1.47-.03-2.13-.29-.66-.78-1.25-1.46-1.75-.69-.51-1.51-.93-2.46-1.27-1.8-.64-3.44-.65-4.93-.04-1.49,.61-2.67,2.14-3.54,4.6-.61,1.73-.84,3.2-.69,4.4,.16,1.2,.63,2.18,1.41,2.94,.79,.76,1.86,1.37,3.21,1.85,.8,.28,1.66,.39,2.58,.33,.92-.06,1.78-.32,2.58-.76,.8-.44,1.42-1.07,1.85-1.89l-5.88-2.08,.96-2.71Z" style="fill:#352083;"/><path d="M242.11,63.29l-9.86,13.94,8.45,5.98-1.66,2.34-11.23-7.94,11.52-16.29,2.78,1.97Z" style="fill:#352083;"/><path d="M265.05,83.25l-14.6,13.59-2.32-2.49,14.6-13.59,2.32,2.5Z" style="fill:#352083;"/><path d="M269.85,120.93l15.22-8.48,1.48,2.65-17.42,9.71-2.99-5.37,10.69-16.66-.36-.64-15.24,8.49-1.47-2.65,17.42-9.71,2.99,5.36-10.66,16.66,.35,.63Z" style="fill:#352083;"/><path d="M285.38,143.77l2.11,9.7-9.8,2.13-.63-2.91,4.56-.17,.03-1.12c-1.29-.19-2.37-.54-3.24-1.03s-1.57-1.17-2.1-2.03c-.53-.86-.95-1.95-1.23-3.26-.38-1.76-.35-3.37,.1-4.85,.45-1.47,1.35-2.73,2.7-3.79,1.36-1.06,3.16-1.83,5.41-2.32,2.23-.48,4.19-.45,5.89,.09,1.7,.55,3.09,1.5,4.15,2.85,1.06,1.36,1.81,3,2.23,4.95,.34,1.55,.45,2.99,.33,4.33-.12,1.34-.51,2.49-1.17,3.43-.66,.95-1.61,1.58-2.86,1.9-.04,.02-.11,.04-.22,.06-.05,.01-.22,.04-.52,.07l-1.75-3.29c.25-.02,.46-.05,.64-.09,.79-.17,1.39-.55,1.8-1.15,.41-.59,.65-1.31,.72-2.17,.07-.86,0-1.78-.22-2.76-.4-1.86-1.26-3.27-2.56-4.21s-3.23-1.14-5.77-.59c-1.79,.39-3.16,.97-4.1,1.73-.94,.77-1.52,1.68-1.75,2.75-.22,1.06-.19,2.3,.12,3.7,.18,.83,.54,1.63,1.08,2.37,.54,.75,1.21,1.35,2,1.8,.8,.45,1.65,.64,2.57,.58l-1.32-6.09,2.81-.61Z" style="fill:#352083;"/></g><polygon points="156.37 298.08 164.19 274.3 165.93 274.57 157.14 298.25 156.37 298.08" style="fill:#352083;"/><polygon points="179.02 298.56 182.58 273.77 184.35 273.74 179.8 298.59 179.02 298.56" style="fill:#352083;"/><polygon points="201.4 295.09 200.61 270.06 202.34 269.72 202.18 294.98 201.4 295.09" style="fill:#352083;"/><polygon points="222.85 287.79 217.72 263.28 219.37 262.64 223.6 287.55 222.85 287.79" style="fill:#352083;"/><polygon points="242.7 276.87 233.39 253.62 234.9 252.71 243.39 276.5 242.7 276.87" style="fill:#352083;"/><polygon points="260.35 262.67 247.15 241.4 248.48 240.24 260.97 262.19 260.35 262.67" style="fill:#352083;"/><polygon points="80.43 75.1 93.63 96.37 92.3 97.53 79.81 75.58 80.43 75.1" style="fill:#352083;"/><polygon points="275.27 245.63 258.58 226.97 259.68 225.59 275.8 245.05 275.27 245.63" style="fill:#352083;"/><polygon points="65.51 92.14 82.2 110.81 81.1 112.18 64.98 92.72 65.51 92.14" style="fill:#352083;"/><polygon points="287 226.25 267.32 210.77 268.17 209.23 287.42 225.59 287 226.25" style="fill:#352083;"/><polygon points="53.78 111.52 73.46 127 72.61 128.55 53.36 112.19 53.78 111.52" style="fill:#352083;"/><polygon points="295.19 205.13 273.12 193.3 273.69 191.63 295.49 204.4 295.19 205.13" style="fill:#352083;"/><polygon points="45.59 132.64 67.66 144.47 67.09 146.14 45.29 133.37 45.59 132.64" style="fill:#352083;"/><polygon points="299.59 182.91 275.8 175.09 276.07 173.35 299.76 182.14 299.59 182.91" style="fill:#352083;"/><polygon points="41.19 154.86 64.98 162.68 64.71 164.42 41.03 155.63 41.19 154.86" style="fill:#352083;"/><polygon points="40.72 177.51 65.5 181.08 65.54 182.84 40.69 178.3 40.72 177.51" style="fill:#352083;"/><polygon points="44.19 199.9 69.21 199.11 69.56 200.84 44.29 200.68 44.19 199.9" style="fill:#352083;"/><polygon points="51.49 221.34 76 216.22 76.64 217.86 51.73 222.09 51.49 221.34" style="fill:#352083;"/><polygon points="62.41 241.19 85.65 231.89 86.56 233.4 62.77 241.89 62.41 241.19" style="fill:#352083;"/><polygon points="76.6 258.84 97.88 245.65 99.04 246.97 77.08 259.47 76.6 258.84" style="fill:#352083;"/><polygon points="93.65 273.76 112.31 257.07 113.68 258.18 94.23 274.29 93.65 273.76" style="fill:#352083;"/><polygon points="113.03 285.5 128.51 265.82 130.05 266.67 113.69 285.92 113.03 285.5" style="fill:#352083;"/><polygon points="134.15 293.69 145.98 271.62 147.64 272.19 134.87 293.98 134.15 293.69" style="fill:#352083;"/></g></g><g id="Club"><g><g><path d="M120.3,102.14c-.02-1.78,.42-3.4,1.33-4.84,.91-1.45,2.15-2.65,3.74-3.61,1.39-.84,2.73-1.43,4.03-1.76,1.29-.34,2.47-.35,3.54-.03,1.06,.31,1.91,1,2.56,2.06l.21,.34-2.51,2.74c-.1-.23-.18-.4-.25-.51-.54-.89-1.36-1.31-2.45-1.25-1.09,.06-2.27,.47-3.52,1.24-1.62,.98-2.68,2.23-3.17,3.75-.49,1.52-.08,3.36,1.24,5.54,.95,1.57,1.94,2.67,2.95,3.31,1.02,.64,2.05,.9,3.12,.78,1.06-.12,2.19-.54,3.39-1.27,.95-.58,1.74-1.21,2.38-1.92,.64-.7,1.06-1.41,1.24-2.14,.18-.73,.08-1.42-.31-2.06-.11-.17-.25-.32-.43-.45l3.58-1.12c.22,.25,.4,.48,.52,.68,.52,.86,.69,1.85,.5,2.94-.19,1.1-.77,2.23-1.75,3.41-.98,1.18-2.34,2.3-4.1,3.36-2.82,1.71-5.41,2.28-7.78,1.7-2.37-.58-4.47-2.38-6.31-5.41-1.14-1.87-1.71-3.7-1.73-5.48Z" style="fill:#352083;"/><path d="M157.86,82.5l1.98,16.96,10.27-1.2,.33,2.85-13.66,1.6-2.32-19.81,3.38-.4Z" style="fill:#352083;"/><path d="M184.46,100.95c-1.05-1.85-1.17-4.06-.37-6.62l3.62-11.46,3.25,1.02-3.56,11.26c-.43,1.37-.54,2.52-.33,3.44,.21,.92,.68,1.67,1.4,2.24,.72,.57,1.69,1.04,2.91,1.43,1.2,.38,2.26,.54,3.18,.49,.92-.05,1.73-.39,2.43-1.03,.7-.64,1.27-1.64,1.7-3.01l3.55-11.26,3.25,1.02-3.62,11.46c-.8,2.55-2.17,4.29-4.1,5.2-1.92,.92-4.36,.91-7.3-.02-2.96-.93-4.96-2.33-6.02-4.18Z" style="fill:#352083;"/><path d="M226.01,115.36c1.14,1.42,1.77,2.67,1.9,3.75,.13,1.08-.24,2.09-1.09,3.01-1.25,1.35-2.69,1.85-4.33,1.51s-3.52-1.5-5.66-3.48l-6.73-6.24,13.56-14.63,5.99,5.55c2.12,1.97,3.41,3.76,3.88,5.38,.47,1.62,.08,3.1-1.16,4.44-.5,.54-1.02,.9-1.56,1.06-.54,.17-1.15,.16-1.8-.02-.66-.18-1.41-.55-2.26-1.11l-.72,.78Zm-7.37,2.56c.89,.82,1.66,1.43,2.3,1.83,.64,.39,1.26,.56,1.86,.51s1.17-.39,1.74-1c.7-.76,.78-1.68,.24-2.78-.55-1.09-1.63-2.39-3.24-3.88l-3-2.78-4,4.31,4.1,3.8Zm5.56-14.21l-3.71,4,2.87,2.66c1.41,1.31,2.61,2.17,3.6,2.58,.99,.41,1.78,.3,2.38-.35,.57-.61,.85-1.21,.86-1.81,0-.59-.21-1.2-.65-1.81-.44-.62-1.1-1.34-1.99-2.17l-3.35-3.11Z" style="fill:#352083;"/></g><polygon points="156.55 257.41 165.16 233.9 166.89 234.23 157.31 257.6 156.55 257.41" style="fill:#352083;"/><polygon points="179.93 257.97 182.17 233.04 183.92 232.91 180.72 257.96 179.93 257.97" style="fill:#352083;"/><polygon points="202.66 252.47 198.37 227.8 200.03 227.22 203.42 252.26 202.66 252.47" style="fill:#352083;"/><polygon points="223.2 241.27 212.66 218.55 214.12 217.56 223.87 240.87 223.2 241.27" style="fill:#352083;"/><polygon points="100.65 112.64 116.7 131.85 115.55 133.19 100.1 113.2 100.65 112.64" style="fill:#352083;"/><polygon points="240.13 225.14 224.08 205.92 225.23 204.59 240.68 224.57 240.13 225.14" style="fill:#352083;"/><polygon points="88.47 132.61 108.95 147.01 108.18 148.6 88.08 133.29 88.47 132.61" style="fill:#352083;"/><polygon points="252.31 205.17 231.83 190.76 232.6 189.18 252.7 204.48 252.31 205.17" style="fill:#352083;"/><polygon points="81.87 155.04 105.38 163.66 105.05 165.39 81.68 155.81 81.87 155.04" style="fill:#352083;"/><polygon points="258.91 182.73 235.4 174.12 235.73 172.38 259.11 181.97 258.91 182.73" style="fill:#352083;"/><polygon points="81.3 178.43 106.24 180.66 106.37 182.42 81.31 179.21 81.3 178.43" style="fill:#352083;"/><polygon points="259.48 159.35 234.54 157.11 234.41 155.35 259.47 158.56 259.48 159.35" style="fill:#352083;"/><polygon points="86.81 201.16 111.47 196.86 112.06 198.53 87.02 201.92 86.81 201.16" style="fill:#352083;"/><polygon points="253.97 136.61 229.31 140.91 228.73 139.25 253.76 135.86 253.97 136.61" style="fill:#352083;"/><polygon points="98.01 221.69 120.72 211.16 121.71 212.62 98.41 222.37 98.01 221.69" style="fill:#352083;"/><polygon points="114.14 238.63 133.36 222.57 134.69 223.73 114.71 239.18 114.14 238.63" style="fill:#352083;"/><polygon points="134.11 250.81 148.51 230.33 150.1 231.1 134.8 251.19 134.11 250.81" style="fill:#352083;"/></g></g><g id="Face"><path d="M133.9,167.23c5.83-3.78,9.97-.07,12.43,3.72l1.3-.85c-3.96-6.11-9.28-7.62-14.58-4.18-4.49,2.91-5.34,9.6-1.91,14.89l3.04-1.98c-2.97-4.57-4.07-9.16-.29-11.61Zm50.93-33.08c3.77-2.45,7.51,.41,10.48,4.99l3.04-1.98c-3.43-5.29-9.89-7.23-14.38-4.32-5.31,3.45-6.08,8.92-2.11,15.02l1.3-.85c-2.46-3.79-4.17-9.09,1.66-12.87Zm12.34,19.34l.05-.03,6.77-4.39,1.09,.23c8.54,13.15,8.1,29.53,.33,42.05-.02,.04-.06,.09-.11,.14h0c-.68,1.08-1.41,2.13-2.2,3.13-.03,.04-.07,.09-.1,.14-.05,.07-.09,.13-.15,.2-.75,.93-1.55,1.85-2.39,2.72-.14,.17-.28,.33-.43,.48-.79,.81-1.64,1.56-2.5,2.29-.05,.05-.11,.1-.16,.15-.14,.13-.28,.26-.43,.38-1.07,.87-2.19,1.69-3.35,2.45s-2.38,1.44-3.6,2.07c-.16,.09-.33,.16-.49,.23-.08,.04-.17,.07-.25,.11-1.02,.49-2.04,.93-3.09,1.34-.1,.04-.21,.07-.31,.11s-.22,.07-.31,.11c-1.14,.42-2.29,.77-3.44,1.07-.07,.02-.14,.04-.21,.05-.07,.01-.14,.03-.21,.05-1.25,.29-2.49,.55-3.74,.72l-.18,.02c-14.58,2.03-29.73-4.24-38.27-17.39l.23-1.09,57.47-37.32Zm.16,1.78l-49.22,31.97c3.15,3.32,8.21,3.96,12.13,1.42,3.2-2.08,4.86-5.85,4.22-9.61l1.24-.76c3.36,2.59,8.03,2.77,11.6,.46,3.77-2.45,5.47-7.16,4.11-11.45l1.23-.85c3.22,2.48,7.65,2.68,11.06,.46,3.91-2.54,5.38-7.42,3.64-11.64Zm-9.61,49.52c.46-.2,.93-.4,1.39-.63h-.03c.37-.2,.73-.4,1.09-.61,.17-.1,.35-.2,.53-.3,.44-.24,.9-.48,1.31-.76-2.44-3.04-6.86-3.78-10.2-1.61-2.26,1.47-3.58,4.05-3.49,6.74,1.19-.18,2.39-.44,3.55-.75h.03s.05,0,.08-.02c.97-.26,1.91-.57,2.85-.91,.13-.05,.26-.09,.4-.13s.27-.09,.4-.13c.54-.2,1.06-.43,1.57-.66,.17-.08,.35-.15,.52-.23Zm13.74-10.6l.07-.05v.03c.75-.93,1.47-1.92,2.13-2.95-2.42-1.17-5.31-1.02-7.58,.44-3.34,2.17-4.44,6.49-2.67,9.97,.22-.15,.43-.31,.64-.46,.2-.15,.39-.29,.59-.43,.16-.12,.33-.24,.49-.36,.34-.25,.67-.49,.99-.75,.38-.32,.76-.66,1.13-1,.13-.11,.25-.23,.38-.34,.45-.4,.89-.8,1.3-1.22,.1-.1,.19-.2,.27-.3,.09-.1,.18-.2,.27-.3,.69-.72,1.38-1.46,1.98-2.28Z" style="fill:#352083; fill-rule:evenodd;"/></g></g></svg>