<?xml version="1.0" encoding="utf-8"?><?xml-stylesheet type="text/css" href="../styles/style.css"?>
<!-- Generator: Adobe Illustrator 26.3.1, SVG Export Plug-In . SVG Version: 6.00 Build 0)  -->
<svg version="1.1" id="Layer_2_00000112604291316737070560000014268702581570115503_"
	 xmlns="http://www.w3.org/2000/svg" xmlns:xlink="http://www.w3.org/1999/xlink" x="0px" y="0px" viewBox="0 0 5602.9 5589.9"
	 style="enable-background:new 0 0 5602.9 5589.9;" xml:space="preserve">
<style type="text/css">
	.st0{fill:none;stroke:#0000ff;stroke-width:2;stroke-miterlimit:10;}
</style>
<g>
	<line vector-effect="non-scaling-stroke" class="st0" x1="3203.4" y1="2531.8" x2="2399.5" y2="1139.3"/>
	<line vector-effect="non-scaling-stroke" class="st0" x1="3250.1" y1="2620.6" x2="2751.6" y2="1092"/>
	<line vector-effect="non-scaling-stroke" class="st0" x1="3274.9" y1="2714.7" x2="3097.1" y2="1116.7"/>
	<line vector-effect="non-scaling-stroke" class="st0" x1="3281" y1="2810.3" x2="3424.2" y2="1208.8"/>
	<line vector-effect="non-scaling-stroke" class="st0" x1="3269.3" y1="2904.7" x2="3723.6" y2="1362.4"/>
	<line vector-effect="non-scaling-stroke" class="st0" x1="3239.2" y1="2995.1" x2="3987.5" y2="1571.9"/>
	<line vector-effect="non-scaling-stroke" class="st0" x1="3190.3" y1="3077.7" x2="4207.6" y2="1832.6"/>
	<line vector-effect="non-scaling-stroke" class="st0" x1="3124" y1="3149.8" x2="4374.2" y2="2138.7"/>
	<line vector-effect="non-scaling-stroke" class="st0" x1="3043.3" y1="3210.9" x2="4475.8" y2="2480.9"/>
	<line vector-effect="non-scaling-stroke" class="st0" x1="2952.6" y1="3251.7" x2="4504.9" y2="2832.6"/>
	<line vector-effect="non-scaling-stroke" class="st0" x1="2857.9" y1="3271.6" x2="4462.8" y2="3174.5"/>
	<line vector-effect="non-scaling-stroke" class="st0" x1="2762.3" y1="3273.3" x2="4354.8" y2="3495.4"/>
	<line vector-effect="non-scaling-stroke" class="st0" x1="2668.6" y1="3257.1" x2="4186.7" y2="3786.7"/>
	<line vector-effect="non-scaling-stroke" class="st0" x1="2579.8" y1="3222.2" x2="3963.9" y2="4040.5"/>
	<line vector-effect="non-scaling-stroke" class="st0" x1="2499.7" y1="3168.8" x2="3691.3" y2="4248.2"/>
	<line vector-effect="non-scaling-stroke" class="st0" x1="2430.3" y1="3098.6" x2="3375" y2="4399.6"/>
	<line vector-effect="non-scaling-stroke" class="st0" x1="2373.1" y1="3014.8" x2="3027.4" y2="4483.4"/>
	<line vector-effect="non-scaling-stroke" class="st0" x1="2337.9" y1="2922.6" x2="2677" y2="4494.3"/>
	<line vector-effect="non-scaling-stroke" class="st0" x1="2322.7" y1="2827.4" x2="2339.4" y2="4435.2"/>
	<line vector-effect="non-scaling-stroke" class="st0" x1="2325.5" y1="2732.1" x2="2025.1" y2="4311.6"/>
	<line vector-effect="non-scaling-stroke" class="st0" x1="2346.3" y1="2639.3" x2="1742.5" y2="4129.4"/>
	<line vector-effect="non-scaling-stroke" class="st0" x1="2385.9" y1="2552.4" x2="1499.3" y2="3893.7"/>
	<line vector-effect="non-scaling-stroke" class="st0" x1="2443.7" y1="2474.8" x2="1304.6" y2="3609.5"/>
	<line vector-effect="non-scaling-stroke" class="st0" x1="2517.6" y1="2408.1" x2="1169.1" y2="3283.7"/>
	<line vector-effect="non-scaling-stroke" class="st0" x1="2604.2" y1="2355.7" x2="1103.4" y2="2932.8"/>
	<line vector-effect="non-scaling-stroke" class="st0" x1="2697.4" y1="2325.9" x2="1110.5" y2="2584.4"/>
	<line vector-effect="non-scaling-stroke" class="st0" x1="2792.9" y1="2315.3" x2="1186.3" y2="2251.7"/>
	<line vector-effect="non-scaling-stroke" class="st0" x1="2887.9" y1="2322.4" x2="1325" y2="1944.7"/>
	<line vector-effect="non-scaling-stroke" class="st0" x1="2979.6" y1="2347.9" x2="1521.1" y2="1671.2"/>
	<line vector-effect="non-scaling-stroke" class="st0" x1="3064.4" y1="2392.2" x2="1769.4" y2="1439.2"/>
	<line vector-effect="non-scaling-stroke" class="st0" x1="3139.3" y1="2454.3" x2="2064.8" y2="1258.2"/>
</g>
</svg>
